<svg width="60" height="60" viewBox="0 0 60 60" fill="none" xmlns="http://www.w3.org/2000/svg">
<path d="M32.1079 45.3921C36.7689 47.738 42.3298 49.3715 48.9356 49.9214C49.5112 49.9693 50 49.511 50 48.9334V40.7808C50 40.3219 49.6877 39.9219 49.2425 39.8106L40.5493 37.6373C40.2085 37.5521 39.848 37.652 39.5996 37.9004L32.1079 45.3921ZM32.1079 45.3921C24.3187 41.4719 19.0426 35.5625 15.6029 29.3971M15.6029 29.3971C11.9663 22.8788 10.3823 16.0744 10.0514 11.0321C10.0143 10.4679 10.4685 10 11.0339 10H19.1802C19.6569 10 20.0673 10.3365 20.1608 10.8039L22.395 21.9752C22.4606 22.3031 22.358 22.642 22.1216 22.8784L15.6029 29.3971Z" stroke="white" stroke-width="2"/>
</svg>
