<svg width="50" height="50" viewBox="0 0 50 50" fill="none" xmlns="http://www.w3.org/2000/svg">
<path d="M35.3534 40.6348L35.9063 41.468L35.3534 40.6348ZM14.6466 40.6348L14.0937 41.468L14.6466 40.6348ZM22.9167 34.3333H27.0833V32.3333H22.9167V34.3333ZM7.25 25C7.25 15.1969 15.1969 7.25 25 7.25V5.25C14.0924 5.25 5.25 14.0924 5.25 25H7.25ZM25 7.25C34.8031 7.25 42.75 15.1969 42.75 25H44.75C44.75 14.0924 35.9076 5.25 25 5.25V7.25ZM30.25 20.8333C30.25 23.7328 27.8995 26.0833 25 26.0833V28.0833C29.0041 28.0833 32.25 24.8374 32.25 20.8333H30.25ZM25 26.0833C22.1005 26.0833 19.75 23.7328 19.75 20.8333H17.75C17.75 24.8374 20.9959 28.0833 25 28.0833V26.0833ZM19.75 20.8333C19.75 17.9338 22.1005 15.5833 25 15.5833V13.5833C20.9959 13.5833 17.75 16.8293 17.75 20.8333H19.75ZM25 15.5833C27.8995 15.5833 30.25 17.9338 30.25 20.8333H32.25C32.25 16.8293 29.0041 13.5833 25 13.5833V15.5833ZM27.0833 34.3333C30.8252 34.3333 33.9138 37.1368 34.3609 40.7573L36.3459 40.5122C35.7765 35.9018 31.8474 32.3333 27.0833 32.3333V34.3333ZM42.75 25C42.75 31.179 39.5936 36.6212 34.8005 39.8015L35.9063 41.468C41.2341 37.9329 44.75 31.8772 44.75 25H42.75ZM34.8005 39.8015C31.9926 41.6647 28.6245 42.75 25 42.75V44.75C29.0299 44.75 32.7807 43.542 35.9063 41.468L34.8005 39.8015ZM15.6391 40.7573C16.0862 37.1368 19.1748 34.3333 22.9167 34.3333V32.3333C18.1526 32.3333 14.2235 35.9018 13.6541 40.5122L15.6391 40.7573ZM25 42.75C21.3755 42.75 18.0074 41.6647 15.1995 39.8015L14.0937 41.468C17.2193 43.542 20.9701 44.75 25 44.75V42.75ZM15.1995 39.8015C10.4064 36.6212 7.25 31.179 7.25 25H5.25C5.25 31.8772 8.76593 37.9329 14.0937 41.468L15.1995 39.8015Z" fill="white"/>
</svg>
